<mxfile host="app.diagrams.net" agent="Mozilla/5.0 (Windows NT 10.0; Win64; x64; rv:142.0) Gecko/20100101 Firefox/142.0" version="28.1.1">
  <diagram name="Page-1" id="amWrAZK_hXIerwLqb0D0">
    <mxGraphModel dx="1753" dy="1137" grid="1" gridSize="10" guides="1" tooltips="1" connect="1" arrows="1" fold="1" page="1" pageScale="1" pageWidth="850" pageHeight="1100" math="0" shadow="0">
      <root>
        <mxCell id="0" />
        <mxCell id="1" parent="0" />
        <mxCell id="Q7sw_AaEVetHlJ_0HPfe-21" value="" style="edgeStyle=none;curved=1;rounded=0;orthogonalLoop=1;jettySize=auto;html=1;fontSize=12;startSize=8;endSize=8;" edge="1" parent="1" source="Q7sw_AaEVetHlJ_0HPfe-1" target="Q7sw_AaEVetHlJ_0HPfe-20">
          <mxGeometry relative="1" as="geometry" />
        </mxCell>
        <mxCell id="Q7sw_AaEVetHlJ_0HPfe-1" value="Innate Immunity" style="rounded=0;whiteSpace=wrap;html=1;" vertex="1" parent="1">
          <mxGeometry x="310" y="470" width="120" height="60" as="geometry" />
        </mxCell>
        <mxCell id="Q7sw_AaEVetHlJ_0HPfe-3" style="edgeStyle=none;curved=1;rounded=0;orthogonalLoop=1;jettySize=auto;html=1;fontSize=12;startSize=8;endSize=8;" edge="1" parent="1" source="Q7sw_AaEVetHlJ_0HPfe-2" target="Q7sw_AaEVetHlJ_0HPfe-1">
          <mxGeometry relative="1" as="geometry" />
        </mxCell>
        <mxCell id="Q7sw_AaEVetHlJ_0HPfe-2" value="Non-specific" style="rounded=0;whiteSpace=wrap;html=1;" vertex="1" parent="1">
          <mxGeometry x="20" y="680" width="120" height="60" as="geometry" />
        </mxCell>
        <mxCell id="Q7sw_AaEVetHlJ_0HPfe-5" style="edgeStyle=none;curved=1;rounded=0;orthogonalLoop=1;jettySize=auto;html=1;fontSize=12;startSize=8;endSize=8;" edge="1" parent="1" source="Q7sw_AaEVetHlJ_0HPfe-4" target="Q7sw_AaEVetHlJ_0HPfe-1">
          <mxGeometry relative="1" as="geometry" />
        </mxCell>
        <mxCell id="Q7sw_AaEVetHlJ_0HPfe-4" value="Rapid" style="rounded=0;whiteSpace=wrap;html=1;" vertex="1" parent="1">
          <mxGeometry x="400" y="600" width="120" height="60" as="geometry" />
        </mxCell>
        <mxCell id="Q7sw_AaEVetHlJ_0HPfe-7" style="edgeStyle=none;curved=1;rounded=0;orthogonalLoop=1;jettySize=auto;html=1;fontSize=12;startSize=8;endSize=8;" edge="1" parent="1" source="Q7sw_AaEVetHlJ_0HPfe-6" target="Q7sw_AaEVetHlJ_0HPfe-4">
          <mxGeometry relative="1" as="geometry" />
        </mxCell>
        <mxCell id="Q7sw_AaEVetHlJ_0HPfe-6" value="Equal every time no memory" style="rounded=0;whiteSpace=wrap;html=1;" vertex="1" parent="1">
          <mxGeometry x="330" y="730" width="120" height="60" as="geometry" />
        </mxCell>
        <mxCell id="Q7sw_AaEVetHlJ_0HPfe-9" style="edgeStyle=none;curved=1;rounded=0;orthogonalLoop=1;jettySize=auto;html=1;fontSize=12;startSize=8;endSize=8;" edge="1" parent="1" source="Q7sw_AaEVetHlJ_0HPfe-8" target="Q7sw_AaEVetHlJ_0HPfe-4">
          <mxGeometry relative="1" as="geometry" />
        </mxCell>
        <mxCell id="Q7sw_AaEVetHlJ_0HPfe-8" value="Recognizes a standard thing presented by pathogens" style="rounded=0;whiteSpace=wrap;html=1;" vertex="1" parent="1">
          <mxGeometry x="520" y="720" width="120" height="60" as="geometry" />
        </mxCell>
        <mxCell id="Q7sw_AaEVetHlJ_0HPfe-11" style="edgeStyle=none;curved=1;rounded=0;orthogonalLoop=1;jettySize=auto;html=1;fontSize=12;startSize=8;endSize=8;" edge="1" parent="1" source="Q7sw_AaEVetHlJ_0HPfe-10" target="Q7sw_AaEVetHlJ_0HPfe-8">
          <mxGeometry relative="1" as="geometry" />
        </mxCell>
        <mxCell id="Q7sw_AaEVetHlJ_0HPfe-10" value="Have PRRs to do this" style="rounded=0;whiteSpace=wrap;html=1;" vertex="1" parent="1">
          <mxGeometry x="470" y="850" width="120" height="60" as="geometry" />
        </mxCell>
        <mxCell id="Q7sw_AaEVetHlJ_0HPfe-13" value="" style="edgeStyle=none;curved=1;rounded=0;orthogonalLoop=1;jettySize=auto;html=1;fontSize=12;startSize=8;endSize=8;" edge="1" parent="1" source="Q7sw_AaEVetHlJ_0HPfe-12" target="Q7sw_AaEVetHlJ_0HPfe-10">
          <mxGeometry relative="1" as="geometry" />
        </mxCell>
        <mxCell id="Q7sw_AaEVetHlJ_0HPfe-12" value="Are all PRRs toll like receptors?" style="rounded=0;whiteSpace=wrap;html=1;" vertex="1" parent="1">
          <mxGeometry x="300" y="870" width="120" height="60" as="geometry" />
        </mxCell>
        <mxCell id="Q7sw_AaEVetHlJ_0HPfe-15" value="" style="edgeStyle=none;curved=1;rounded=0;orthogonalLoop=1;jettySize=auto;html=1;fontSize=12;startSize=8;endSize=8;" edge="1" parent="1" source="Q7sw_AaEVetHlJ_0HPfe-14" target="Q7sw_AaEVetHlJ_0HPfe-10">
          <mxGeometry relative="1" as="geometry" />
        </mxCell>
        <mxCell id="Q7sw_AaEVetHlJ_0HPfe-14" value="generate an acute inflamatory response" style="rounded=0;whiteSpace=wrap;html=1;" vertex="1" parent="1">
          <mxGeometry x="470" y="970" width="120" height="60" as="geometry" />
        </mxCell>
        <mxCell id="Q7sw_AaEVetHlJ_0HPfe-17" value="" style="edgeStyle=none;curved=1;rounded=0;orthogonalLoop=1;jettySize=auto;html=1;fontSize=12;startSize=8;endSize=8;" edge="1" parent="1" source="Q7sw_AaEVetHlJ_0HPfe-16" target="Q7sw_AaEVetHlJ_0HPfe-14">
          <mxGeometry relative="1" as="geometry" />
        </mxCell>
        <mxCell id="Q7sw_AaEVetHlJ_0HPfe-16" value="NFK-B improtant trans factor that creates pro-inflammatory cytokines" style="rounded=0;whiteSpace=wrap;html=1;" vertex="1" parent="1">
          <mxGeometry x="670" y="950" width="130" height="80" as="geometry" />
        </mxCell>
        <mxCell id="Q7sw_AaEVetHlJ_0HPfe-19" value="" style="edgeStyle=none;curved=1;rounded=0;orthogonalLoop=1;jettySize=auto;html=1;fontSize=12;startSize=8;endSize=8;" edge="1" parent="1" source="Q7sw_AaEVetHlJ_0HPfe-18" target="Q7sw_AaEVetHlJ_0HPfe-16">
          <mxGeometry relative="1" as="geometry" />
        </mxCell>
        <mxCell id="Q7sw_AaEVetHlJ_0HPfe-18" value="IL-1, INF-g, IL-8" style="rounded=0;whiteSpace=wrap;html=1;" vertex="1" parent="1">
          <mxGeometry x="670" y="820" width="120" height="60" as="geometry" />
        </mxCell>
        <mxCell id="Q7sw_AaEVetHlJ_0HPfe-20" value="How can pathogen be removed" style="rounded=0;whiteSpace=wrap;html=1;" vertex="1" parent="1">
          <mxGeometry x="470" y="450" width="120" height="60" as="geometry" />
        </mxCell>
        <mxCell id="Q7sw_AaEVetHlJ_0HPfe-23" value="" style="edgeStyle=none;curved=1;rounded=0;orthogonalLoop=1;jettySize=auto;html=1;fontSize=12;startSize=8;endSize=8;" edge="1" parent="1" source="Q7sw_AaEVetHlJ_0HPfe-22" target="Q7sw_AaEVetHlJ_0HPfe-20">
          <mxGeometry relative="1" as="geometry" />
        </mxCell>
        <mxCell id="Q7sw_AaEVetHlJ_0HPfe-22" value="IgM" style="rounded=0;whiteSpace=wrap;html=1;" vertex="1" parent="1">
          <mxGeometry x="430" y="300" width="120" height="60" as="geometry" />
        </mxCell>
        <mxCell id="Q7sw_AaEVetHlJ_0HPfe-25" value="" style="edgeStyle=none;curved=1;rounded=0;orthogonalLoop=1;jettySize=auto;html=1;fontSize=12;startSize=8;endSize=8;" edge="1" parent="1" source="Q7sw_AaEVetHlJ_0HPfe-24" target="Q7sw_AaEVetHlJ_0HPfe-22">
          <mxGeometry relative="1" as="geometry" />
        </mxCell>
        <mxCell id="Q7sw_AaEVetHlJ_0HPfe-24" value="Standard Immunoglabulan" style="rounded=0;whiteSpace=wrap;html=1;" vertex="1" parent="1">
          <mxGeometry x="340" y="390" width="120" height="60" as="geometry" />
        </mxCell>
        <mxCell id="Q7sw_AaEVetHlJ_0HPfe-28" style="edgeStyle=none;curved=1;rounded=0;orthogonalLoop=1;jettySize=auto;html=1;fontSize=12;startSize=8;endSize=8;" edge="1" parent="1" source="Q7sw_AaEVetHlJ_0HPfe-26" target="Q7sw_AaEVetHlJ_0HPfe-22">
          <mxGeometry relative="1" as="geometry" />
        </mxCell>
        <mxCell id="Q7sw_AaEVetHlJ_0HPfe-26" value="no memory" style="rounded=0;whiteSpace=wrap;html=1;" vertex="1" parent="1">
          <mxGeometry x="365" y="190" width="120" height="60" as="geometry" />
        </mxCell>
        <mxCell id="Q7sw_AaEVetHlJ_0HPfe-30" style="edgeStyle=none;curved=1;rounded=0;orthogonalLoop=1;jettySize=auto;html=1;entryX=0.75;entryY=0;entryDx=0;entryDy=0;fontSize=12;startSize=8;endSize=8;" edge="1" parent="1" source="Q7sw_AaEVetHlJ_0HPfe-29" target="Q7sw_AaEVetHlJ_0HPfe-20">
          <mxGeometry relative="1" as="geometry" />
        </mxCell>
        <mxCell id="Q7sw_AaEVetHlJ_0HPfe-29" value="complement" style="rounded=0;whiteSpace=wrap;html=1;" vertex="1" parent="1">
          <mxGeometry x="600" y="350" width="120" height="60" as="geometry" />
        </mxCell>
        <mxCell id="Q7sw_AaEVetHlJ_0HPfe-32" style="edgeStyle=none;curved=1;rounded=0;orthogonalLoop=1;jettySize=auto;html=1;fontSize=12;startSize=8;endSize=8;" edge="1" parent="1" source="Q7sw_AaEVetHlJ_0HPfe-31" target="Q7sw_AaEVetHlJ_0HPfe-20">
          <mxGeometry relative="1" as="geometry" />
        </mxCell>
        <mxCell id="Q7sw_AaEVetHlJ_0HPfe-31" value="respiratory burst" style="rounded=0;whiteSpace=wrap;html=1;" vertex="1" parent="1">
          <mxGeometry x="680" y="440" width="120" height="60" as="geometry" />
        </mxCell>
        <mxCell id="Q7sw_AaEVetHlJ_0HPfe-34" style="edgeStyle=none;curved=1;rounded=0;orthogonalLoop=1;jettySize=auto;html=1;entryX=0.5;entryY=1;entryDx=0;entryDy=0;fontSize=12;startSize=8;endSize=8;" edge="1" parent="1" source="Q7sw_AaEVetHlJ_0HPfe-33" target="Q7sw_AaEVetHlJ_0HPfe-20">
          <mxGeometry relative="1" as="geometry" />
        </mxCell>
        <mxCell id="Q7sw_AaEVetHlJ_0HPfe-33" value="lysozome" style="rounded=0;whiteSpace=wrap;html=1;" vertex="1" parent="1">
          <mxGeometry x="670" y="540" width="120" height="60" as="geometry" />
        </mxCell>
        <mxCell id="Q7sw_AaEVetHlJ_0HPfe-37" style="edgeStyle=none;curved=1;rounded=0;orthogonalLoop=1;jettySize=auto;html=1;fontSize=12;startSize=8;endSize=8;" edge="1" parent="1" source="Q7sw_AaEVetHlJ_0HPfe-36" target="Q7sw_AaEVetHlJ_0HPfe-20">
          <mxGeometry relative="1" as="geometry" />
        </mxCell>
        <mxCell id="Q7sw_AaEVetHlJ_0HPfe-36" value="phagocytosis" style="rounded=0;whiteSpace=wrap;html=1;" vertex="1" parent="1">
          <mxGeometry x="540" y="580" width="120" height="60" as="geometry" />
        </mxCell>
        <mxCell id="Q7sw_AaEVetHlJ_0HPfe-39" style="edgeStyle=none;curved=1;rounded=0;orthogonalLoop=1;jettySize=auto;html=1;fontSize=12;startSize=8;endSize=8;" edge="1" parent="1" source="Q7sw_AaEVetHlJ_0HPfe-38" target="Q7sw_AaEVetHlJ_0HPfe-31">
          <mxGeometry relative="1" as="geometry" />
        </mxCell>
        <mxCell id="Q7sw_AaEVetHlJ_0HPfe-40" style="edgeStyle=none;curved=1;rounded=0;orthogonalLoop=1;jettySize=auto;html=1;fontSize=12;startSize=8;endSize=8;" edge="1" parent="1" source="Q7sw_AaEVetHlJ_0HPfe-38" target="Q7sw_AaEVetHlJ_0HPfe-33">
          <mxGeometry relative="1" as="geometry" />
        </mxCell>
        <mxCell id="Q7sw_AaEVetHlJ_0HPfe-41" style="edgeStyle=none;curved=1;rounded=0;orthogonalLoop=1;jettySize=auto;html=1;entryX=1;entryY=0.75;entryDx=0;entryDy=0;fontSize=12;startSize=8;endSize=8;" edge="1" parent="1" source="Q7sw_AaEVetHlJ_0HPfe-38" target="Q7sw_AaEVetHlJ_0HPfe-36">
          <mxGeometry relative="1" as="geometry">
            <Array as="points">
              <mxPoint x="900" y="670" />
            </Array>
          </mxGeometry>
        </mxCell>
        <mxCell id="Q7sw_AaEVetHlJ_0HPfe-38" value="nuetrophils" style="rounded=0;whiteSpace=wrap;html=1;" vertex="1" parent="1">
          <mxGeometry x="930" y="460" width="120" height="60" as="geometry" />
        </mxCell>
        <mxCell id="Q7sw_AaEVetHlJ_0HPfe-43" value="" style="edgeStyle=none;curved=1;rounded=0;orthogonalLoop=1;jettySize=auto;html=1;fontSize=12;startSize=8;endSize=8;" edge="1" parent="1" source="Q7sw_AaEVetHlJ_0HPfe-42" target="Q7sw_AaEVetHlJ_0HPfe-38">
          <mxGeometry relative="1" as="geometry" />
        </mxCell>
        <mxCell id="Q7sw_AaEVetHlJ_0HPfe-42" value="does not present antigens" style="rounded=0;whiteSpace=wrap;html=1;" vertex="1" parent="1">
          <mxGeometry x="930" y="350" width="120" height="60" as="geometry" />
        </mxCell>
        <mxCell id="Q7sw_AaEVetHlJ_0HPfe-45" style="edgeStyle=none;curved=1;rounded=0;orthogonalLoop=1;jettySize=auto;html=1;fontSize=12;startSize=8;endSize=8;" edge="1" parent="1" source="Q7sw_AaEVetHlJ_0HPfe-44" target="Q7sw_AaEVetHlJ_0HPfe-38">
          <mxGeometry relative="1" as="geometry" />
        </mxCell>
        <mxCell id="Q7sw_AaEVetHlJ_0HPfe-44" value="nuetrophils have multiple nucleus" style="rounded=0;whiteSpace=wrap;html=1;" vertex="1" parent="1">
          <mxGeometry x="1120" y="430" width="120" height="60" as="geometry" />
        </mxCell>
        <mxCell id="Q7sw_AaEVetHlJ_0HPfe-49" style="edgeStyle=none;curved=1;rounded=0;orthogonalLoop=1;jettySize=auto;html=1;fontSize=12;startSize=8;endSize=8;" edge="1" parent="1" source="Q7sw_AaEVetHlJ_0HPfe-47" target="Q7sw_AaEVetHlJ_0HPfe-1">
          <mxGeometry relative="1" as="geometry" />
        </mxCell>
        <mxCell id="Q7sw_AaEVetHlJ_0HPfe-47" value="cells invovlved" style="rounded=0;whiteSpace=wrap;html=1;" vertex="1" parent="1">
          <mxGeometry x="90" y="440" width="100" height="60" as="geometry" />
        </mxCell>
        <mxCell id="Q7sw_AaEVetHlJ_0HPfe-51" style="edgeStyle=none;curved=1;rounded=0;orthogonalLoop=1;jettySize=auto;html=1;fontSize=12;startSize=8;endSize=8;" edge="1" parent="1" source="Q7sw_AaEVetHlJ_0HPfe-50" target="Q7sw_AaEVetHlJ_0HPfe-47">
          <mxGeometry relative="1" as="geometry" />
        </mxCell>
        <mxCell id="Q7sw_AaEVetHlJ_0HPfe-50" value="Basophils" style="rounded=0;whiteSpace=wrap;html=1;" vertex="1" parent="1">
          <mxGeometry x="140" y="300" width="120" height="60" as="geometry" />
        </mxCell>
        <mxCell id="Q7sw_AaEVetHlJ_0HPfe-53" style="edgeStyle=none;curved=1;rounded=0;orthogonalLoop=1;jettySize=auto;html=1;fontSize=12;startSize=8;endSize=8;" edge="1" parent="1" source="Q7sw_AaEVetHlJ_0HPfe-52" target="Q7sw_AaEVetHlJ_0HPfe-47">
          <mxGeometry relative="1" as="geometry" />
        </mxCell>
        <mxCell id="Q7sw_AaEVetHlJ_0HPfe-52" value="esinophils" style="rounded=0;whiteSpace=wrap;html=1;" vertex="1" parent="1">
          <mxGeometry x="-30" y="280" width="120" height="60" as="geometry" />
        </mxCell>
        <mxCell id="Q7sw_AaEVetHlJ_0HPfe-55" style="edgeStyle=none;curved=1;rounded=0;orthogonalLoop=1;jettySize=auto;html=1;fontSize=12;startSize=8;endSize=8;" edge="1" parent="1" source="Q7sw_AaEVetHlJ_0HPfe-54" target="Q7sw_AaEVetHlJ_0HPfe-47">
          <mxGeometry relative="1" as="geometry" />
        </mxCell>
        <mxCell id="Q7sw_AaEVetHlJ_0HPfe-64" style="edgeStyle=none;curved=1;rounded=0;orthogonalLoop=1;jettySize=auto;html=1;entryX=1;entryY=0.5;entryDx=0;entryDy=0;fontSize=12;startSize=8;endSize=8;" edge="1" parent="1" source="Q7sw_AaEVetHlJ_0HPfe-54" target="Q7sw_AaEVetHlJ_0HPfe-63">
          <mxGeometry relative="1" as="geometry" />
        </mxCell>
        <mxCell id="Q7sw_AaEVetHlJ_0HPfe-54" value="Monocytes" style="rounded=0;whiteSpace=wrap;html=1;" vertex="1" parent="1">
          <mxGeometry x="-100" y="400" width="120" height="60" as="geometry" />
        </mxCell>
        <mxCell id="Q7sw_AaEVetHlJ_0HPfe-57" style="edgeStyle=none;curved=1;rounded=0;orthogonalLoop=1;jettySize=auto;html=1;entryX=0;entryY=0.5;entryDx=0;entryDy=0;fontSize=12;startSize=8;endSize=8;" edge="1" parent="1" source="Q7sw_AaEVetHlJ_0HPfe-56" target="Q7sw_AaEVetHlJ_0HPfe-47">
          <mxGeometry relative="1" as="geometry" />
        </mxCell>
        <mxCell id="Q7sw_AaEVetHlJ_0HPfe-56" value="basophils" style="rounded=0;whiteSpace=wrap;html=1;" vertex="1" parent="1">
          <mxGeometry x="-80" y="500" width="120" height="60" as="geometry" />
        </mxCell>
        <mxCell id="Q7sw_AaEVetHlJ_0HPfe-59" value="" style="edgeStyle=none;curved=1;rounded=0;orthogonalLoop=1;jettySize=auto;html=1;entryX=0.5;entryY=1;entryDx=0;entryDy=0;fontSize=12;startSize=8;endSize=8;" edge="1" parent="1" source="Q7sw_AaEVetHlJ_0HPfe-58" target="Q7sw_AaEVetHlJ_0HPfe-47">
          <mxGeometry relative="1" as="geometry" />
        </mxCell>
        <mxCell id="Q7sw_AaEVetHlJ_0HPfe-58" value="nuetrophils" style="rounded=0;whiteSpace=wrap;html=1;" vertex="1" parent="1">
          <mxGeometry x="40" y="570" width="120" height="60" as="geometry" />
        </mxCell>
        <mxCell id="Q7sw_AaEVetHlJ_0HPfe-60" value="macrophages" style="rounded=0;whiteSpace=wrap;html=1;" vertex="1" parent="1">
          <mxGeometry x="-210" y="280" width="120" height="60" as="geometry" />
        </mxCell>
        <mxCell id="Q7sw_AaEVetHlJ_0HPfe-62" style="edgeStyle=none;curved=1;rounded=0;orthogonalLoop=1;jettySize=auto;html=1;entryX=0.602;entryY=1.036;entryDx=0;entryDy=0;entryPerimeter=0;fontSize=12;startSize=8;endSize=8;" edge="1" parent="1" source="Q7sw_AaEVetHlJ_0HPfe-54" target="Q7sw_AaEVetHlJ_0HPfe-60">
          <mxGeometry relative="1" as="geometry" />
        </mxCell>
        <mxCell id="Q7sw_AaEVetHlJ_0HPfe-63" value="dendritic cells" style="rounded=0;whiteSpace=wrap;html=1;" vertex="1" parent="1">
          <mxGeometry x="-250" y="440" width="120" height="60" as="geometry" />
        </mxCell>
        <mxCell id="Q7sw_AaEVetHlJ_0HPfe-66" style="edgeStyle=none;curved=1;rounded=0;orthogonalLoop=1;jettySize=auto;html=1;entryX=0.5;entryY=0;entryDx=0;entryDy=0;fontSize=12;startSize=8;endSize=8;" edge="1" parent="1" source="Q7sw_AaEVetHlJ_0HPfe-65" target="Q7sw_AaEVetHlJ_0HPfe-60">
          <mxGeometry relative="1" as="geometry" />
        </mxCell>
        <mxCell id="Q7sw_AaEVetHlJ_0HPfe-65" value="can present antigens" style="rounded=0;whiteSpace=wrap;html=1;" vertex="1" parent="1">
          <mxGeometry x="-160" y="120" width="120" height="60" as="geometry" />
        </mxCell>
        <mxCell id="Q7sw_AaEVetHlJ_0HPfe-68" style="edgeStyle=none;curved=1;rounded=0;orthogonalLoop=1;jettySize=auto;html=1;fontSize=12;startSize=8;endSize=8;" edge="1" parent="1" source="Q7sw_AaEVetHlJ_0HPfe-67" target="Q7sw_AaEVetHlJ_0HPfe-1">
          <mxGeometry relative="1" as="geometry" />
        </mxCell>
        <mxCell id="Q7sw_AaEVetHlJ_0HPfe-67" value="effective against parasites and fungi" style="rounded=0;whiteSpace=wrap;html=1;" vertex="1" parent="1">
          <mxGeometry x="190" y="690" width="120" height="60" as="geometry" />
        </mxCell>
        <mxCell id="Q7sw_AaEVetHlJ_0HPfe-70" style="edgeStyle=none;curved=1;rounded=0;orthogonalLoop=1;jettySize=auto;html=1;fontSize=12;startSize=8;endSize=8;" edge="1" parent="1" source="Q7sw_AaEVetHlJ_0HPfe-69" target="Q7sw_AaEVetHlJ_0HPfe-1">
          <mxGeometry relative="1" as="geometry">
            <Array as="points">
              <mxPoint x="280" y="400" />
            </Array>
          </mxGeometry>
        </mxCell>
        <mxCell id="Q7sw_AaEVetHlJ_0HPfe-69" value="germline encoded" style="rounded=0;whiteSpace=wrap;html=1;" vertex="1" parent="1">
          <mxGeometry x="190" y="150" width="120" height="60" as="geometry" />
        </mxCell>
      </root>
    </mxGraphModel>
  </diagram>
</mxfile>
